<svg width="19" height="19" viewBox="0 0 19 19" fill="none" xmlns="http://www.w3.org/2000/svg">
<path d="M6.54594 6.54605C6.19592 6.89606 6.19592 7.46882 6.54594 7.81884L8.45513 9.72803L6.54594 11.6372C6.19592 11.9872 6.19592 12.56 6.54594 12.91C6.89596 13.26 7.46872 13.26 7.81873 12.91L9.72792 11.0008L11.6371 12.91C11.9871 13.26 12.5599 13.26 12.9099 12.91C13.2599 12.56 13.2599 11.9872 12.9099 11.6372L11.0007 9.72803L12.9099 7.81884C13.2599 7.46882 13.2599 6.89606 12.9099 6.54605C12.5599 6.19603 11.9871 6.19603 11.6371 6.54605L9.72792 8.45524L7.81873 6.54605C7.46872 6.19603 6.89596 6.19603 6.54594 6.54605ZM3.36396 3.36407C-0.148945 6.87697 -0.148945 12.5791 3.36396 16.092C6.87687 19.6049 12.579 19.6049 16.0919 16.092C19.6048 12.5791 19.6048 6.87697 16.0919 3.36407C12.579 -0.14884 6.87687 -0.14884 3.36396 3.36407ZM14.8191 14.8192C12.0126 17.6257 7.44326 17.6257 4.63675 14.8192C1.83025 12.0127 1.83025 7.44337 4.63675 4.63686C7.44326 1.83035 12.0126 1.83035 14.8191 4.63686C17.6256 7.44337 17.6256 12.0127 14.8191 14.8192Z" fill="#BBBBBB"/>
</svg>
