<svg width="11" height="14" viewBox="0 0 11 14" fill="none" xmlns="http://www.w3.org/2000/svg">
<path d="M5.03338 0C2.25064 0 0 2.25064 0 5.03338C0 8.03184 3.17822 12.1664 4.4869 13.7411C4.77452 14.0863 5.29943 14.0863 5.58706 13.7411C6.88855 12.1664 10.0668 8.03184 10.0668 5.03338C10.0668 2.25064 7.81613 0 5.03338 0ZM5.03338 6.83102C4.04109 6.83102 3.23575 6.02568 3.23575 5.03338C3.23575 4.04109 4.04109 3.23575 5.03338 3.23575C6.02568 3.23575 6.83102 4.04109 6.83102 5.03338C6.83102 6.02568 6.02568 6.83102 5.03338 6.83102Z" fill="white"/>
</svg>
