<svg width="64" height="64" viewBox="0 0 64 64" fill="none" xmlns="http://www.w3.org/2000/svg">
<path d="M31.7305 0C25.8815 0 21.137 4.25269 21.137 9.10019V54.3947C21.137 59.2421 25.8815 63.4999 31.7305 63.4999C37.5795 63.4999 42.3191 59.4322 42.3191 54.3947V9.10019C42.3191 4.06269 37.5795 0 31.7305 0ZM31.7305 6.61972C32.2507 6.62005 32.7657 6.72293 33.2462 6.9223C33.7266 7.12167 34.1631 7.41362 34.5307 7.78168C34.8983 8.14973 35.1898 8.58668 35.3885 9.06738C35.5873 9.54809 35.6893 10.0632 35.689 10.5833C35.6883 11.633 35.2711 12.6395 34.5288 13.3817C33.7866 14.1238 32.7802 14.5411 31.7305 14.5418C30.68 14.5424 29.6723 14.1257 28.929 13.3833C28.1857 12.641 27.7678 11.6338 27.7671 10.5833C27.7667 10.0627 27.8691 9.54719 28.0681 9.06616C28.2672 8.58513 28.5591 8.14812 28.9272 7.78C29.2953 7.41188 29.7323 7.11985 30.2133 6.92078C30.6944 6.7217 31.2099 6.6194 31.7305 6.61972ZM31.7305 48.9531C32.2507 48.9534 32.7657 49.0562 33.2462 49.2555C33.7266 49.4549 34.1631 49.747 34.5307 50.1151C34.8983 50.4831 35.1898 50.9199 35.3885 51.4006C35.5873 51.8813 35.6893 52.3965 35.689 52.9167C35.6883 53.9664 35.2711 54.9727 34.5288 55.7149C33.7866 56.4571 32.7802 56.8743 31.7305 56.875C30.68 56.8757 29.6723 56.459 28.929 55.7167C28.1857 54.9744 27.7678 53.9672 27.7671 52.9167C27.7667 52.3961 27.8691 51.8806 28.0681 51.3995C28.2672 50.9185 28.5591 50.4813 28.9272 50.1132C29.2953 49.7451 29.7323 49.4532 30.2133 49.2542C30.6944 49.0551 31.2099 48.9528 31.7305 48.9531Z" fill="white"/>
<path d="M47.3821 7.94068C47.1213 7.96309 46.8653 8.02412 46.6225 8.12165C46.1318 8.31896 45.7116 8.6587 45.416 9.09715C45.1203 9.53559 44.9627 10.0525 44.9637 10.5814V27.0248C44.9693 27.7219 45.2497 28.3885 45.744 28.88L58.8905 42.0471C59.2612 42.4155 59.7326 42.6658 60.2454 42.7666C60.7581 42.8674 61.2892 42.8142 61.7717 42.6135C62.2542 42.4129 62.6664 42.0739 62.9565 41.6393C63.2467 41.2046 63.4016 40.6939 63.4018 40.1714V32.2441C63.4018 26.4688 61.1672 20.9043 57.1697 16.736L49.5113 8.74696C49.2387 8.46259 48.9061 8.24266 48.5378 8.10319C48.1694 7.96371 47.7746 7.90814 47.3821 7.94068Z" fill="white"/>
<path d="M1.46241 19.9605C1.26904 19.9611 1.07769 19.9997 0.89921 20.0741C0.63169 20.1878 0.403649 20.3779 0.243692 20.6205C0.0837353 20.8632 -0.00102343 21.1478 9.32647e-06 21.4384V30.1924C9.32647e-06 36.1984 2.37522 41.98 6.62492 46.3051L15.2756 55.0952C15.4808 55.3071 15.7449 55.4528 16.0336 55.5133C16.3224 55.5737 16.6227 55.5463 16.8958 55.4345C17.1688 55.3228 17.4021 55.1317 17.5656 54.8861C17.7291 54.6405 17.8152 54.3515 17.813 54.0565L17.7922 35.9337C17.794 35.7383 17.757 35.5445 17.6834 35.3636C17.6098 35.1826 17.501 35.018 17.3633 34.8794L15.5701 33.1379C15.363 32.9383 15.1021 32.8036 14.8195 32.7502C14.5369 32.6968 14.2447 32.7272 13.979 32.8375C13.7134 32.9478 13.4858 33.1333 13.3241 33.3712C13.1625 33.6092 13.0738 33.889 13.069 34.1766L13.0483 35.7786C13.0442 36.1026 12.8981 36.2292 12.6401 36.3212C12.3821 36.4112 12.1467 36.4016 11.9167 36.1456C11.9033 36.1263 11.8894 36.1073 11.8752 36.0887L9.04344 33.1793L9.1002 33.2155C8.6312 32.6835 8.3447 32.0302 8.2837 31.3449L7.79283 26.0479C7.76183 25.7021 7.60995 25.3783 7.3639 25.1333L2.50108 20.3842C2.22408 20.1118 1.85091 19.9596 1.46241 19.9605Z" fill="white"/>
</svg>
