<svg width="924" height="924" viewBox="0 0 924 924" fill="none" xmlns="http://www.w3.org/2000/svg">
<circle cx="462" cy="462" r="462" fill="#FF0000"/>
<path d="M672 438.369C672 424.79 661.065 413.855 647.487 413.855C633.908 413.855 622.973 424.79 622.973 438.369C622.973 522.483 546.069 590.856 451.5 590.856C356.931 590.856 280.027 522.483 280.027 438.369C280.027 424.79 269.092 413.855 255.513 413.855C241.935 413.855 231 424.79 231 438.369C231 541.95 316.917 627.506 426.987 638.681V707.775H398.628C385.05 707.775 374.115 718.71 374.115 732.289C374.115 745.867 385.05 756.802 398.628 756.802H504.372C517.95 756.802 528.885 745.867 528.885 732.289C528.885 718.71 517.95 707.775 504.372 707.775H476.013V638.681C586.083 627.506 672 541.95 672 438.369Z" fill="white"/>
<path d="M451.5 543.511C512.784 543.511 562.411 493.883 562.411 432.6V278.911C562.411 217.628 512.784 168 451.5 168C390.217 168 340.589 217.628 340.589 278.911V432.6C340.589 493.883 390.217 543.511 451.5 543.511ZM388.655 278.911C388.655 244.304 416.893 216.065 451.5 216.065C486.107 216.065 514.346 244.304 514.346 278.911V432.6C514.346 467.207 486.107 495.446 451.5 495.446C416.893 495.446 388.655 467.207 388.655 432.6V278.911Z" fill="white"/>
</svg>
