<svg width="44" height="44" viewBox="0 0 44 44" fill="none" xmlns="http://www.w3.org/2000/svg">
<circle cx="22" cy="22" r="22" fill="#A40000"/>
<path d="M32 20.8748C32 20.2282 31.4793 19.7075 30.8327 19.7075C30.1861 19.7075 29.6654 20.2282 29.6654 20.8748C29.6654 24.8803 26.0033 28.1361 21.5 28.1361C16.9967 28.1361 13.3346 24.8803 13.3346 20.8748C13.3346 20.2282 12.8139 19.7075 12.1673 19.7075C11.5207 19.7075 11 20.2282 11 20.8748C11 25.8072 15.0913 29.8814 20.3327 30.4135V33.7037H18.9823C18.3357 33.7037 17.815 34.2244 17.815 34.871C17.815 35.5176 18.3357 36.0383 18.9823 36.0383H24.0177C24.6643 36.0383 25.185 35.5176 25.185 34.871C25.185 34.2244 24.6643 33.7037 24.0177 33.7037H22.6673V30.4135C27.9087 29.8814 32 25.8072 32 20.8748Z" fill="white"/>
<path d="M21.5 25.8815C24.4182 25.8815 26.7814 23.5183 26.7814 20.6V13.2815C26.7814 10.3632 24.4182 8 21.5 8C18.5817 8 16.2185 10.3632 16.2185 13.2815V20.6C16.2185 23.5183 18.5817 25.8815 21.5 25.8815ZM18.5073 13.2815C18.5073 11.6335 19.852 10.2888 21.5 10.2888C23.1479 10.2888 24.4926 11.6335 24.4926 13.2815V20.6C24.4926 22.248 23.1479 23.5926 21.5 23.5926C19.852 23.5926 18.5073 22.248 18.5073 20.6V13.2815Z" fill="white"/>
</svg>
