<svg width="18" height="18" viewBox="0 0 18 18" fill="none" xmlns="http://www.w3.org/2000/svg">
<path fill-rule="evenodd" clip-rule="evenodd" d="M0 9C0 4.02943 4.02943 0 9 0C13.9705 0 18 4.02943 18 9C18 13.9705 13.9705 18 9 18C4.02943 18 0 13.9705 0 9ZM6.3 8.55C6.3 7.30737 7.30737 6.3 8.55 6.3C9.79263 6.3 10.8 7.30737 10.8 8.55C10.8 9.79263 9.79263 10.8 8.55 10.8C7.30737 10.8 6.3 9.79263 6.3 8.55ZM8.55 4.5C6.31325 4.5 4.5 6.31325 4.5 8.55C4.5 10.7868 6.31325 12.6 8.55 12.6C9.34245 12.6 10.0818 12.3724 10.7061 11.979L11.9636 13.2364C12.3151 13.5878 12.8849 13.5878 13.2364 13.2364C13.5878 12.8849 13.5878 12.3151 13.2364 11.9636L11.979 10.7061C12.3724 10.0818 12.6 9.34245 12.6 8.55C12.6 6.31325 10.7868 4.5 8.55 4.5Z" fill="#BBBBBB"/>
</svg>
