<svg width="197" height="20" viewBox="0 0 197 20" fill="none" xmlns="http://www.w3.org/2000/svg">
<path d="M2.2 9.2865C2.2 8.66795 1.70751 8.1665 1.1 8.1665C0.492488 8.1665 0 8.66795 0 9.2865V10.7132C0 11.3317 0.492488 11.8332 1.1 11.8332C1.70751 11.8332 2.2 11.3317 2.2 10.7132V9.2865Z" fill="white"/>
<path d="M6.63579 5.7865C6.63579 5.16795 6.14331 4.6665 5.53579 4.6665C4.92828 4.6665 4.43579 5.16795 4.43579 5.7865V14.2132C4.43579 14.8317 4.92828 15.3332 5.53579 15.3332C6.14331 15.3332 6.63579 14.8317 6.63579 14.2132V5.7865Z" fill="white"/>
<path d="M11.0713 8.12C11.0713 7.50144 10.5789 7 9.97134 7C9.36383 7 8.87134 7.50144 8.87134 8.12V11.88C8.87134 12.4986 9.36383 13 9.97134 13C10.5789 13 11.0713 12.4986 11.0713 11.88V8.12Z" fill="white"/>
<path d="M15.5108 8.12C15.5108 7.50144 15.0183 7 14.4108 7C13.8033 7 13.3108 7.50144 13.3108 8.12V11.88C13.3108 12.4986 13.8033 13 14.4108 13C15.0183 13 15.5108 12.4986 15.5108 11.88V8.12Z" fill="white"/>
<path d="M19.9463 9.2865C19.9463 8.66795 19.4539 8.1665 18.8463 8.1665C18.2388 8.1665 17.7463 8.66795 17.7463 9.2865V10.7132C17.7463 11.3317 18.2388 11.8332 18.8463 11.8332C19.4539 11.8332 19.9463 11.3317 19.9463 10.7132V9.2865Z" fill="white"/>
<path d="M24.3821 8.12C24.3821 7.50144 23.8896 7 23.2821 7C22.6746 7 22.1821 7.50144 22.1821 8.12V11.88C22.1821 12.4986 22.6746 13 23.2821 13C23.8896 13 24.3821 12.4986 24.3821 11.88V8.12Z" fill="white"/>
<path d="M28.818 1.12C28.818 0.501441 28.3256 0 27.718 0C27.1105 0 26.618 0.501441 26.618 1.12V18.88C26.618 19.4986 27.1105 20 27.718 20C28.3256 20 28.818 19.4986 28.818 18.88V1.12Z" fill="white"/>
<path d="M33.2571 3.4535C33.2571 2.83494 32.7646 2.3335 32.1571 2.3335C31.5496 2.3335 31.0571 2.83494 31.0571 3.4535V16.5468C31.0571 17.1654 31.5496 17.6668 32.1571 17.6668C32.7646 17.6668 33.2571 17.1654 33.2571 16.5468V3.4535Z" fill="white"/>
<path d="M37.6929 3.4535C37.6929 2.83494 37.2004 2.3335 36.5929 2.3335C35.9854 2.3335 35.4929 2.83494 35.4929 3.4535V16.5468C35.4929 17.1654 35.9854 17.6668 36.5929 17.6668C37.2004 17.6668 37.6929 17.1654 37.6929 16.5468V3.4535Z" fill="white"/>
<path d="M42.1287 5.7865C42.1287 5.16795 41.6362 4.6665 41.0287 4.6665C40.4212 4.6665 39.9287 5.16795 39.9287 5.7865V14.2132C39.9287 14.8317 40.4212 15.3332 41.0287 15.3332C41.6362 15.3332 42.1287 14.8317 42.1287 14.2132V5.7865Z" fill="white"/>
<path d="M46.5644 1.12C46.5644 0.501441 46.0719 0 45.4644 0C44.8569 0 44.3644 0.501441 44.3644 1.12V18.88C44.3644 19.4986 44.8569 20 45.4644 20C46.0719 20 46.5644 19.4986 46.5644 18.88V1.12Z" fill="white"/>
<path d="M51 1.12C51 0.501441 50.5076 0 49.9 0C49.2925 0 48.8 0.501441 48.8 1.12V18.88C48.8 19.4986 49.2925 20 49.9 20C50.5076 20 51 19.4986 51 18.88V1.12Z" fill="white"/>
<path d="M55.4393 6.9535C55.4393 6.33494 54.9468 5.8335 54.3393 5.8335C53.7317 5.8335 53.2393 6.33494 53.2393 6.9535V13.0468C53.2393 13.6654 53.7317 14.1668 54.3393 14.1668C54.9468 14.1668 55.4393 13.6654 55.4393 13.0468V6.9535Z" fill="white"/>
<path d="M59.875 6.9535C59.875 6.33494 59.3826 5.8335 58.775 5.8335C58.1675 5.8335 57.675 6.33494 57.675 6.9535V13.0468C57.675 13.6654 58.1675 14.1668 58.775 14.1668C59.3826 14.1668 59.875 13.6654 59.875 13.0468V6.9535Z" fill="white"/>
<path d="M64.3107 1.12C64.3107 0.501441 63.8182 0 63.2107 0C62.6032 0 62.1107 0.501441 62.1107 1.12V18.88C62.1107 19.4986 62.6032 20 63.2107 20C63.8182 20 64.3107 19.4986 64.3107 18.88V1.12Z" fill="white"/>
<path d="M68.7464 1.12C68.7464 0.501441 68.2539 0 67.6464 0C67.0389 0 66.5464 0.501441 66.5464 1.12V18.88C66.5464 19.4986 67.0389 20 67.6464 20C68.2539 20 68.7464 19.4986 68.7464 18.88V1.12Z" fill="white"/>
<path d="M73.1856 2.2865C73.1856 1.66795 72.6931 1.1665 72.0856 1.1665C71.4781 1.1665 70.9856 1.66795 70.9856 2.2865V17.7132C70.9856 18.3317 71.4781 18.8332 72.0856 18.8332C72.6931 18.8332 73.1856 18.3317 73.1856 17.7132V2.2865Z" fill="white"/>
<path d="M77.6214 5.7865C77.6214 5.16795 77.1289 4.6665 76.5214 4.6665C75.9139 4.6665 75.4214 5.16795 75.4214 5.7865V14.2132C75.4214 14.8317 75.9139 15.3332 76.5214 15.3332C77.1289 15.3332 77.6214 14.8317 77.6214 14.2132V5.7865Z" fill="white"/>
<path d="M82.0569 4.62C82.0569 4.00144 81.5644 3.5 80.9569 3.5C80.3494 3.5 79.8569 4.00144 79.8569 4.62V15.38C79.8569 15.9986 80.3494 16.5 80.9569 16.5C81.5644 16.5 82.0569 15.9986 82.0569 15.38V4.62Z" fill="white"/>
<path d="M86.4927 8.12C86.4927 7.50144 86.0002 7 85.3927 7C84.7852 7 84.2927 7.50144 84.2927 8.12V11.88C84.2927 12.4986 84.7852 13 85.3927 13C86.0002 13 86.4927 12.4986 86.4927 11.88V8.12Z" fill="white"/>
<path d="M90.9285 2.2865C90.9285 1.66795 90.436 1.1665 89.8285 1.1665C89.221 1.1665 88.7285 1.66795 88.7285 2.2865V17.7132C88.7285 18.3317 89.221 18.8332 89.8285 18.8332C90.436 18.8332 90.9285 18.3317 90.9285 17.7132V2.2865Z" fill="white"/>
<path d="M95.3677 3.4535C95.3677 2.83494 94.8752 2.3335 94.2677 2.3335C93.6602 2.3335 93.1677 2.83494 93.1677 3.4535V16.5468C93.1677 17.1654 93.6602 17.6668 94.2677 17.6668C94.8752 17.6668 95.3677 17.1654 95.3677 16.5468V3.4535Z" fill="white"/>
<path d="M194.8 10.7135C194.8 11.3321 195.292 11.8335 195.9 11.8335C196.508 11.8335 197 11.3321 197 10.7135V9.28683C197 8.66827 196.508 8.16683 195.9 8.16683C195.292 8.16683 194.8 8.66827 194.8 9.28683V10.7135Z" fill="white"/>
<path d="M190.364 14.2135C190.364 14.8321 190.857 15.3335 191.464 15.3335C192.072 15.3335 192.564 14.8321 192.564 14.2135V5.78683C192.564 5.16827 192.072 4.66683 191.464 4.66683C190.857 4.66683 190.364 5.16827 190.364 5.78683V14.2135Z" fill="white"/>
<path d="M185.929 11.88C185.929 12.4986 186.421 13 187.029 13C187.636 13 188.129 12.4986 188.129 11.88V8.12C188.129 7.50144 187.636 7 187.029 7C186.421 7 185.929 7.50144 185.929 8.12V11.88Z" fill="white"/>
<path d="M181.489 11.88C181.489 12.4986 181.982 13 182.589 13C183.197 13 183.689 12.4986 183.689 11.88V8.12C183.689 7.50144 183.197 7 182.589 7C181.982 7 181.489 7.50144 181.489 8.12V11.88Z" fill="white"/>
<path d="M177.054 10.7135C177.054 11.3321 177.546 11.8335 178.154 11.8335C178.761 11.8335 179.254 11.3321 179.254 10.7135V9.28683C179.254 8.66827 178.761 8.16683 178.154 8.16683C177.546 8.16683 177.054 8.66827 177.054 9.28683V10.7135Z" fill="white"/>
<path d="M172.618 11.88C172.618 12.4986 173.11 13 173.718 13C174.325 13 174.818 12.4986 174.818 11.88V8.12C174.818 7.50144 174.325 7 173.718 7C173.11 7 172.618 7.50144 172.618 8.12V11.88Z" fill="white"/>
<path d="M168.182 18.88C168.182 19.4986 168.674 20 169.282 20C169.889 20 170.382 19.4986 170.382 18.88V1.12C170.382 0.50144 169.889 0 169.282 0C168.674 0 168.182 0.50144 168.182 1.12V18.88Z" fill="white"/>
<path d="M163.743 16.5465C163.743 17.1651 164.235 17.6665 164.843 17.6665C165.45 17.6665 165.943 17.1651 165.943 16.5465V3.45317C165.943 2.83461 165.45 2.33317 164.843 2.33317C164.235 2.33317 163.743 2.83461 163.743 3.45317V16.5465Z" fill="white"/>
<path d="M159.307 16.5465C159.307 17.1651 159.8 17.6665 160.407 17.6665C161.015 17.6665 161.507 17.1651 161.507 16.5465V3.45317C161.507 2.83461 161.015 2.33317 160.407 2.33317C159.8 2.33317 159.307 2.83461 159.307 3.45317V16.5465Z" fill="white"/>
<path d="M154.871 14.2135C154.871 14.8321 155.364 15.3335 155.971 15.3335C156.579 15.3335 157.071 14.8321 157.071 14.2135V5.78683C157.071 5.16827 156.579 4.66683 155.971 4.66683C155.364 4.66683 154.871 5.16827 154.871 5.78683V14.2135Z" fill="white"/>
<path d="M150.436 18.88C150.436 19.4986 150.928 20 151.536 20C152.143 20 152.636 19.4986 152.636 18.88V1.12C152.636 0.50144 152.143 0 151.536 0C150.928 0 150.436 0.50144 150.436 1.12V18.88Z" fill="white"/>
<path d="M146 18.88C146 19.4986 146.492 20 147.1 20C147.707 20 148.2 19.4986 148.2 18.88V1.12C148.2 0.50144 147.707 0 147.1 0C146.492 0 146 0.50144 146 1.12V18.88Z" fill="white"/>
<path d="M141.561 13.0465C141.561 13.6651 142.053 14.1665 142.661 14.1665C143.268 14.1665 143.761 13.6651 143.761 13.0465V6.95317C143.761 6.33461 143.268 5.83317 142.661 5.83317C142.053 5.83317 141.561 6.33461 141.561 6.95317V13.0465Z" fill="white"/>
<path d="M137.125 13.0465C137.125 13.6651 137.617 14.1665 138.225 14.1665C138.832 14.1665 139.325 13.6651 139.325 13.0465V6.95317C139.325 6.33461 138.832 5.83317 138.225 5.83317C137.617 5.83317 137.125 6.33461 137.125 6.95317V13.0465Z" fill="white"/>
<path d="M132.689 18.88C132.689 19.4986 133.182 20 133.789 20C134.397 20 134.889 19.4986 134.889 18.88V1.12C134.889 0.50144 134.397 0 133.789 0C133.182 0 132.689 0.50144 132.689 1.12V18.88Z" fill="white"/>
<path d="M128.254 18.88C128.254 19.4986 128.746 20 129.354 20C129.961 20 130.454 19.4986 130.454 18.88V1.12C130.454 0.50144 129.961 0 129.354 0C128.746 0 128.254 0.50144 128.254 1.12V18.88Z" fill="white"/>
<path d="M123.814 17.7135C123.814 18.3321 124.307 18.8335 124.914 18.8335C125.522 18.8335 126.014 18.3321 126.014 17.7135V2.28683C126.014 1.66827 125.522 1.16683 124.914 1.16683C124.307 1.16683 123.814 1.66827 123.814 2.28683V17.7135Z" fill="white"/>
<path d="M119.379 14.2135C119.379 14.8321 119.871 15.3335 120.479 15.3335C121.086 15.3335 121.579 14.8321 121.579 14.2135V5.78683C121.579 5.16827 121.086 4.66683 120.479 4.66683C119.871 4.66683 119.379 5.16827 119.379 5.78683V14.2135Z" fill="white"/>
<path d="M114.943 15.38C114.943 15.9986 115.436 16.5 116.043 16.5C116.651 16.5 117.143 15.9986 117.143 15.38V4.62C117.143 4.00144 116.651 3.5 116.043 3.5C115.436 3.5 114.943 4.00144 114.943 4.62V15.38Z" fill="white"/>
<path d="M110.507 11.88C110.507 12.4986 111 13 111.607 13C112.215 13 112.707 12.4986 112.707 11.88V8.12C112.707 7.50144 112.215 7 111.607 7C111 7 110.507 7.50144 110.507 8.12V11.88Z" fill="white"/>
<path d="M106.071 17.7135C106.071 18.3321 106.564 18.8335 107.171 18.8335C107.779 18.8335 108.271 18.3321 108.271 17.7135V2.28683C108.271 1.66827 107.779 1.16683 107.171 1.16683C106.564 1.16683 106.071 1.66827 106.071 2.28683V17.7135Z" fill="white"/>
<path d="M101.632 16.5465C101.632 17.1651 102.125 17.6665 102.732 17.6665C103.34 17.6665 103.832 17.1651 103.832 16.5465V3.45317C103.832 2.83461 103.34 2.33317 102.732 2.33317C102.125 2.33317 101.632 2.83461 101.632 3.45317V16.5465Z" fill="white"/>
<path d="M97.1962 10.7135C97.1962 11.3321 97.6887 11.8335 98.2962 11.8335C98.9038 11.8335 99.3962 11.3321 99.3962 10.7135V9.28683C99.3962 8.66827 98.9038 8.16683 98.2962 8.16683C97.6887 8.16683 97.1962 8.66827 97.1962 9.28683V10.7135Z" fill="white"/>
</svg>
